<svg width="136" height="22" viewBox="0 0 136 22" fill="none" xmlns="http://www.w3.org/2000/svg">
<path d="M66.2257 6.53239C66.7568 6.53239 67.1873 6.07414 67.1873 5.50887C67.1873 4.9436 66.7568 4.48535 66.2257 4.48535C65.6947 4.48535 65.2642 4.9436 65.2642 5.50887C65.2642 6.07414 65.6947 6.53239 66.2257 6.53239Z" fill="#FFCE2E"/>
<path d="M71.6655 5.42782C71.527 5.55392 71.3655 5.61778 71.1824 5.61778C70.947 5.61778 70.7578 5.53099 70.6116 5.3574C70.4655 5.18381 70.3932 4.95618 70.3932 4.67451C70.3932 4.3912 70.4655 4.16193 70.6101 3.98834C70.7547 3.81475 70.9455 3.72796 71.1824 3.72796C71.3547 3.72796 71.5101 3.78527 71.6486 3.89991C71.787 4.01454 71.8855 4.16684 71.9424 4.35517H73.2917C73.2209 3.782 72.9917 3.32018 72.604 2.96646C72.2163 2.61273 71.7393 2.4375 71.1763 2.4375C70.7593 2.4375 70.3824 2.53412 70.0485 2.72572C69.7147 2.91733 69.4531 3.18426 69.2654 3.52489C69.0777 3.86552 68.9839 4.24872 68.9839 4.67451C68.9839 5.09865 69.0777 5.48186 69.2654 5.82413C69.4531 6.16475 69.7147 6.43169 70.0485 6.62329C70.3824 6.81489 70.7593 6.91151 71.1763 6.91151C71.7486 6.91151 72.2317 6.7281 72.624 6.36291C73.0163 5.99771 73.2425 5.51953 73.3055 4.92834H71.9363C71.8932 5.13468 71.804 5.30172 71.6655 5.42782Z" fill="#242424"/>
<path d="M76.5251 4.26552C76.259 3.99859 75.9159 3.86594 75.4959 3.86594C75.4528 3.86594 75.3943 3.86758 75.3205 3.87249L76.0651 2.58203H74.7358L74.1066 3.67597C73.9281 3.98549 73.7973 4.27207 73.7112 4.53409C73.6266 4.79612 73.5835 5.05486 73.5835 5.31361C73.5835 5.78689 73.7389 6.17173 74.0481 6.46814C74.3589 6.76455 74.7605 6.91358 75.2559 6.91358C75.7574 6.91358 76.1605 6.76619 76.4667 6.46978C76.7728 6.17337 76.9251 5.78525 76.9251 5.30214C76.9236 4.878 76.7913 4.53246 76.5251 4.26552ZM75.6266 5.69682C75.5312 5.79835 75.4066 5.84912 75.2543 5.84912C75.102 5.84912 74.9774 5.79835 74.882 5.69682C74.7866 5.59528 74.7374 5.46263 74.7374 5.30051C74.7374 5.13838 74.7851 5.00409 74.882 4.90092C74.9774 4.79612 75.102 4.74535 75.2543 4.74535C75.4066 4.74535 75.5312 4.79775 75.6266 4.90092C75.722 5.00573 75.7697 5.13838 75.7697 5.30051C75.7697 5.46263 75.722 5.59528 75.6266 5.69682Z" fill="#242424"/>
<path d="M10.1709 2.10098C11.1493 2.56935 11.9047 3.23914 12.4355 4.11036C12.9663 4.98158 13.2324 6.00346 13.2324 7.17929C13.2324 8.35511 12.9663 9.37535 12.4355 10.2367C11.9047 11.0998 11.1493 11.7663 10.1709 12.2347C9.1924 12.703 8.03854 12.9372 6.71084 12.9372H4.15235V17.3343H0V1.39844H6.71084C8.03854 1.39844 9.1924 1.63262 10.1709 2.10098ZM8.38932 8.86605C8.82317 8.47138 9.04009 7.90967 9.04009 7.18092C9.04009 6.45218 8.82317 5.88556 8.38932 5.48433C7.95547 5.08311 7.31238 4.88169 6.46007 4.88169H4.15235V9.45887H6.45853C7.31238 9.45724 7.95547 9.26072 8.38932 8.86605Z" fill="#242424"/>
<path d="M23.0698 6.40977C24.0621 7.3252 24.5591 8.72866 24.5591 10.6185V17.3377H20.8467V15.7754C20.2729 16.9512 19.1544 17.5391 17.4913 17.5391C16.6113 17.5391 15.8482 17.3754 15.2051 17.0478C14.562 16.7203 14.0759 16.2781 13.7482 15.7197C13.4189 15.1613 13.2559 14.5259 13.2559 13.8119C13.2559 12.6655 13.6682 11.7763 14.4928 11.1442C15.3174 10.512 16.5897 10.196 18.3098 10.196H20.5744C20.5036 8.91698 19.7005 8.27667 18.1621 8.27667C17.6174 8.27667 17.0636 8.37001 16.5051 8.55507C15.9451 8.74176 15.4697 8.99723 15.079 9.32475L13.7374 6.44579C14.3666 5.99872 15.1328 5.65318 16.0343 5.40753C16.9359 5.16189 17.8405 5.03907 18.7498 5.03907C20.6359 5.03743 22.0759 5.49433 23.0698 6.40977ZM19.819 14.503C20.1682 14.2655 20.4205 13.915 20.5744 13.4532V12.4035H18.8544C17.6944 12.4035 17.1144 12.8129 17.1144 13.6317C17.1144 14.0035 17.2467 14.3015 17.5128 14.5242C17.779 14.747 18.1421 14.86 18.6036 14.86C19.0651 14.86 19.4682 14.7404 19.819 14.503Z" fill="#242424"/>
<path d="M37.5394 5.23992L32.6316 17.83C32.0578 19.3187 31.3593 20.3635 30.5347 20.9661C29.7101 21.5688 28.7024 21.8701 27.5146 21.8701C26.9131 21.8701 26.3085 21.7702 25.7008 21.5688C25.0931 21.3673 24.5992 21.1037 24.2223 20.7762L25.6069 17.8071C25.83 18.0298 26.0993 18.2051 26.4146 18.3312C26.73 18.4573 27.047 18.5211 27.3685 18.5211C27.7454 18.5211 28.0577 18.4392 28.3024 18.2755C28.547 18.1117 28.7531 17.8513 28.9208 17.4943L24.0562 5.23828H28.1454L30.9347 12.6273L33.7455 5.23828L37.5394 5.23992Z" fill="#242424"/>
<path d="M48.0679 9.18866H51.7372V15.6622C50.8987 16.3025 49.9341 16.7938 48.8433 17.1361C47.7525 17.4784 46.6618 17.6503 45.5725 17.6503C44.034 17.6503 42.6494 17.3048 41.4202 16.6121C40.1894 15.9193 39.2248 14.9564 38.5263 13.7216C37.8278 12.4869 37.4771 11.0867 37.4771 9.52438C37.4771 7.96208 37.8263 6.56354 38.5263 5.32712C39.2248 4.09235 40.1971 3.12778 41.4417 2.4367C42.6848 1.74398 44.0894 1.39844 45.6556 1.39844C47.0248 1.39844 48.2556 1.64408 49.3464 2.13537C50.4372 2.62666 51.3449 3.33412 52.0726 4.25611L49.431 6.80099C48.4387 5.63991 47.2495 5.06019 45.8664 5.06019C44.6079 5.06019 43.594 5.46632 42.8248 6.27695C42.0556 7.08758 41.6709 8.17169 41.6709 9.52438C41.6709 10.3874 41.8463 11.1571 42.1956 11.8351C42.5448 12.5131 43.034 13.0404 43.6633 13.4203C44.2925 13.8002 45.0125 13.9902 45.8233 13.9902C46.6202 13.9902 47.3679 13.8199 48.0679 13.476V9.18866Z" fill="#242424"/>
<path d="M55.5538 16.735C54.5754 16.1995 53.8092 15.456 53.2569 14.5029C52.7046 13.5515 52.4292 12.4723 52.4292 11.267C52.4292 10.0764 52.7046 9.00541 53.2569 8.05231C53.8092 7.09921 54.5708 6.359 55.5431 5.83168C56.5154 5.30272 57.6154 5.03906 58.8462 5.03906C60.0754 5.03906 61.1816 5.30272 62.1601 5.83168C63.1385 6.36063 63.9001 7.09757 64.4462 8.04085C64.9909 8.98576 65.2632 10.0617 65.2632 11.267C65.2632 12.4723 64.9909 13.5515 64.4462 14.5029C63.9016 15.456 63.1385 16.1995 62.1601 16.735C61.1816 17.2705 60.077 17.5391 58.8462 17.5391C57.6292 17.5391 56.5323 17.2705 55.5538 16.735ZM60.5662 13.3975C61.0139 12.885 61.237 12.1742 61.237 11.2653C61.237 10.3728 61.0124 9.67357 60.5662 9.16754C60.1185 8.66151 59.5462 8.40931 58.8462 8.40931C58.1462 8.40931 57.5739 8.66315 57.1262 9.16754C56.6785 9.67357 56.4554 10.3728 56.4554 11.2653C56.4554 12.1726 56.6785 12.8833 57.1262 13.3975C57.5739 13.9118 58.1462 14.1672 58.8462 14.1672C59.5447 14.1672 60.1185 13.9101 60.5662 13.3975Z" fill="#242424"/>
<path d="M83.0793 1.53384H89.7446C91.3375 1.53384 92.7418 1.86689 93.9575 2.53301C95.1871 3.18399 96.1373 4.10747 96.808 5.30345C97.4927 6.49943 97.835 7.89222 97.835 9.48182C97.835 11.0714 97.4927 12.4642 96.808 13.6602C96.1373 14.8562 95.1871 15.7872 93.9575 16.4533C92.7418 17.1043 91.3375 17.4298 89.7446 17.4298H83.0793V1.53384ZM89.5769 14.4096C91.0441 14.4096 92.2108 13.9705 93.0772 13.0925C93.9575 12.1993 94.3976 10.9957 94.3976 9.48182C94.3976 7.96792 93.9575 6.77193 93.0772 5.89387C92.2108 5.00067 91.0441 4.55407 89.5769 4.55407H86.4748V14.4096H89.5769Z" fill="#FFCE2E"/>
<path d="M104.742 5.03095C106.489 5.03095 107.83 5.48512 108.766 6.39346C109.703 7.28666 110.171 8.6416 110.171 10.4583V17.4298H107.111V15.9083C106.496 17.0438 105.35 17.6115 103.673 17.6115C102.807 17.6115 102.052 17.4525 101.41 17.1346C100.781 16.8167 100.299 16.3776 99.9633 15.8175C99.628 15.2573 99.4603 14.6215 99.4603 13.91C99.4603 12.7746 99.8515 11.8814 100.634 11.2304C101.431 10.5794 102.653 10.2539 104.302 10.2539H106.901C106.901 9.48182 106.684 8.8914 106.251 8.48264C105.818 8.05875 105.168 7.8468 104.302 7.8468C103.701 7.8468 103.107 7.95278 102.52 8.16472C101.948 8.36153 101.458 8.63403 101.053 8.98223L99.8795 6.507C100.494 6.03769 101.228 5.67436 102.08 5.41699C102.947 5.15963 103.834 5.03095 104.742 5.03095ZM104.491 15.2271C105.05 15.2271 105.546 15.0908 105.979 14.8183C106.412 14.5307 106.719 14.1144 106.901 13.5694V12.3204H104.658C103.317 12.3204 102.646 12.7973 102.646 13.751C102.646 14.2052 102.807 14.5685 103.128 14.841C103.464 15.0984 103.918 15.2271 104.491 15.2271Z" fill="#FFCE2E"/>
<path d="M116.952 17.6115C116.016 17.6115 115.101 17.4904 114.207 17.2481C113.312 16.9908 112.6 16.6728 112.069 16.2944L113.159 13.751C113.662 14.0992 114.27 14.3869 114.982 14.6139C115.695 14.8259 116.393 14.9319 117.078 14.9319C118.462 14.9319 119.153 14.561 119.153 13.8191C119.153 13.4709 118.965 13.2212 118.587 13.0698C118.21 12.9184 117.63 12.7897 116.848 12.6837C115.925 12.5323 115.164 12.3582 114.563 12.1614C113.962 11.9646 113.438 11.6164 112.991 11.1168C112.558 10.6172 112.341 9.90571 112.341 8.98223C112.341 8.21014 112.544 7.52888 112.949 6.93846C113.368 6.3329 113.969 5.86359 114.752 5.53053C115.548 5.19748 116.484 5.03095 117.56 5.03095C118.357 5.03095 119.146 5.12935 119.929 5.32616C120.725 5.50783 121.382 5.76519 121.899 6.09825L120.809 8.61889C119.817 8.01333 118.734 7.71055 117.56 7.71055C116.862 7.71055 116.338 7.81653 115.988 8.02847C115.639 8.24042 115.464 8.51292 115.464 8.84598C115.464 9.22445 115.653 9.48939 116.03 9.64078C116.407 9.79217 117.008 9.93599 117.833 10.0722C118.755 10.2388 119.51 10.4204 120.096 10.6172C120.683 10.7989 121.193 11.1395 121.626 11.6391C122.06 12.1387 122.276 12.8351 122.276 13.7283C122.276 14.4853 122.067 15.1589 121.647 15.7494C121.228 16.3398 120.613 16.8015 119.803 17.1346C119.006 17.4525 118.056 17.6115 116.952 17.6115Z" fill="#FFCE2E"/>
<path d="M131.176 5.03095C132.573 5.03095 133.698 5.48512 134.551 6.39346C135.417 7.3018 135.85 8.64917 135.85 10.4356V17.4298H132.58V10.9806C132.58 10.0117 132.385 9.29258 131.994 8.82327C131.602 8.33882 131.036 8.0966 130.296 8.0966C129.471 8.0966 128.815 8.37667 128.326 8.93681C127.837 9.48182 127.592 10.2993 127.592 11.3893V17.4298H124.322V0.580078H127.592V6.48429C128.025 6.01498 128.549 5.65922 129.164 5.41699C129.779 5.15963 130.45 5.03095 131.176 5.03095Z" fill="#FFCE2E"/>
</svg>
