<svg width="128" height="32" viewBox="0 0 128 32" fill="none" xmlns="http://www.w3.org/2000/svg">
  <path
    d="M110.196 8.023C111.079 8.023 111.796 7.30665 111.796 6.423C111.796 5.53934 111.079 4.823 110.196 4.823C109.312 4.823 108.596 5.53934 108.596 6.423C108.596 7.30665 109.312 8.023 110.196 8.023Z"
    fill="#FFCE2E" />
  <path
    d="M119.248 6.29761C119.017 6.49473 118.748 6.59457 118.444 6.59457C118.052 6.59457 117.737 6.45889 117.494 6.18753C117.251 5.91617 117.131 5.56033 117.131 5.12001C117.131 4.67713 117.251 4.31873 117.492 4.04737C117.732 3.77601 118.05 3.64033 118.444 3.64033C118.731 3.64033 118.989 3.72993 119.219 3.90913C119.45 4.08833 119.614 4.32641 119.708 4.62081H121.954C121.836 3.72481 121.454 3.00289 120.809 2.44993C120.164 1.89697 119.371 1.62305 118.434 1.62305C117.74 1.62305 117.113 1.77409 116.557 2.07361C116.002 2.37313 115.566 2.79041 115.254 3.32289C114.942 3.85537 114.786 4.45441 114.786 5.12001C114.786 5.78305 114.942 6.38209 115.254 6.91713C115.566 7.44961 116.002 7.86689 116.557 8.16641C117.113 8.46593 117.74 8.61697 118.434 8.61697C119.386 8.61697 120.19 8.33025 120.842 7.75937C121.495 7.18849 121.872 6.44097 121.977 5.51681H119.698C119.627 5.83937 119.478 6.10049 119.248 6.29761Z"
    fill="#242424" />
  <path
    d="M127.335 4.48007C126.892 4.06279 126.321 3.85543 125.622 3.85543C125.55 3.85543 125.453 3.85799 125.33 3.86567L126.569 1.84839H124.357L123.31 3.55847C123.013 4.04231 122.796 4.49031 122.652 4.89991C122.512 5.30951 122.44 5.71399 122.44 6.11847C122.44 6.85831 122.698 7.45991 123.213 7.92327C123.73 8.38663 124.398 8.61959 125.223 8.61959C126.057 8.61959 126.728 8.38919 127.237 7.92583C127.747 7.46247 128 6.85575 128 6.10055C127.998 5.43751 127.777 4.89735 127.335 4.48007ZM125.84 6.71751C125.681 6.87623 125.473 6.95559 125.22 6.95559C124.967 6.95559 124.759 6.87623 124.601 6.71751C124.442 6.55879 124.36 6.35143 124.36 6.09799C124.36 5.84455 124.439 5.63463 124.601 5.47335C124.759 5.30951 124.967 5.23015 125.22 5.23015C125.473 5.23015 125.681 5.31207 125.84 5.47335C125.998 5.63719 126.078 5.84455 126.078 6.09799C126.078 6.35143 125.998 6.55879 125.84 6.71751Z"
    fill="#242424" />
  <path
    d="M16.9238 1.09824C18.552 1.8304 19.8089 2.87744 20.6921 4.23936C21.5752 5.60128 22.0181 7.19872 22.0181 9.0368C22.0181 10.8749 21.5752 12.4698 20.6921 13.8163C19.8089 15.1654 18.552 16.2074 16.9238 16.9395C15.2957 17.6717 13.3757 18.0378 11.1665 18.0378H6.9093V24.9114H0V0H11.1665C13.3757 0 15.2957 0.36608 16.9238 1.09824ZM13.9594 11.6736C14.6813 11.0566 15.0423 10.1786 15.0423 9.03936C15.0423 7.90016 14.6813 7.0144 13.9594 6.3872C13.2375 5.76 12.1674 5.44512 10.7492 5.44512H6.9093V12.6003H10.7467C12.1674 12.5978 13.2375 12.2906 13.9594 11.6736Z"
    fill="#242424" />
  <path
    d="M38.3866 7.83364C40.0377 9.26468 40.8646 11.4586 40.8646 14.4128V24.9165H34.6874V22.4743C33.7326 24.3124 31.8715 25.2314 29.1042 25.2314C27.6399 25.2314 26.3702 24.9754 25.3001 24.4634C24.23 23.9514 23.4211 23.2602 22.8758 22.3872C22.328 21.5143 22.0566 20.521 22.0566 19.4048C22.0566 17.6128 22.7427 16.2228 24.1148 15.2346C25.487 14.2464 27.604 13.7524 30.4661 13.7524H34.2343C34.1166 11.753 32.7803 10.752 30.2203 10.752C29.3141 10.752 28.3925 10.898 27.4633 11.1872C26.5314 11.4791 25.7404 11.8784 25.0902 12.3904L22.8579 7.88996C23.9049 7.19108 25.1798 6.65092 26.6799 6.26692C28.18 5.88292 29.6853 5.69092 31.1982 5.69092C34.3367 5.68836 36.7328 6.4026 38.3866 7.83364ZM32.9774 20.4852C33.5585 20.114 33.9783 19.5661 34.2343 18.8442V17.2032H31.3723C29.4421 17.2032 28.477 17.8432 28.477 19.1232C28.477 19.7044 28.6971 20.1703 29.14 20.5184C29.5829 20.8666 30.187 21.0432 30.955 21.0432C31.723 21.0432 32.3937 20.8564 32.9774 20.4852Z"
    fill="#242424" />
  <path
    d="M62.4627 6.00329L54.2965 25.6846C53.3416 28.0116 52.1794 29.6449 50.8073 30.587C49.4352 31.5291 47.7584 32.0001 45.7821 32.0001C44.7812 32.0001 43.7751 31.8439 42.7639 31.5291C41.7527 31.2142 40.931 30.802 40.3038 30.29L42.6078 25.6487C42.979 25.9969 43.427 26.2708 43.9517 26.4679C44.4765 26.6651 45.0039 26.7649 45.5389 26.7649C46.1661 26.7649 46.6858 26.6369 47.0928 26.3809C47.4998 26.1249 47.8429 25.7179 48.1219 25.1598L40.0273 6.00073H46.8317L51.4729 17.5515L56.1499 6.00073L62.4627 6.00329Z"
    fill="#242424" />
  <path
    d="M79.983 12.1779H86.0885V22.2976C84.6933 23.2986 83.0883 24.0666 81.2733 24.6016C79.4583 25.1366 77.6432 25.4054 75.8308 25.4054C73.2709 25.4054 70.9669 24.8653 68.9215 23.7824C66.8735 22.6995 65.2685 21.1942 64.1062 19.264C62.944 17.3338 62.3604 15.145 62.3604 12.7027C62.3604 10.2605 62.9415 8.07424 64.1062 6.14144C65.2685 4.2112 66.8863 2.70336 68.9573 1.62304C71.0258 0.54016 73.363 0 75.969 0C78.2474 0 80.2953 0.384 82.1104 1.152C83.9254 1.92 85.4357 3.02592 86.6466 4.4672L82.2511 8.44544C80.6 6.6304 78.6211 5.72416 76.3198 5.72416C74.2257 5.72416 72.5387 6.35904 71.2587 7.62624C69.9788 8.89344 69.3388 10.5882 69.3388 12.7027C69.3388 14.0518 69.6306 15.255 70.2117 16.3149C70.7928 17.3747 71.6069 18.199 72.6539 18.793C73.7009 19.3869 74.899 19.6838 76.2481 19.6838C77.5741 19.6838 78.8183 19.4176 79.983 18.88V12.1779Z"
    fill="#242424" />
  <path
    d="M92.4397 23.9744C90.8116 23.1373 89.5368 21.9751 88.6177 20.4852C87.6987 18.9978 87.2405 17.3108 87.2405 15.4266C87.2405 13.5655 87.6987 11.8912 88.6177 10.4013C89.5368 8.9114 90.8039 7.75428 92.4218 6.92996C94.0397 6.10308 95.8701 5.69092 97.918 5.69092C99.9634 5.69092 101.804 6.10308 103.432 6.92996C105.06 7.75684 106.327 8.90884 107.236 10.3834C108.142 11.8605 108.596 13.5424 108.596 15.4266C108.596 17.3108 108.142 18.9978 107.236 20.4852C106.33 21.9751 105.06 23.1373 103.432 23.9744C101.804 24.8116 99.966 25.2314 97.918 25.2314C95.8931 25.2314 94.0679 24.8116 92.4397 23.9744ZM100.78 18.7572C101.525 17.9559 101.896 16.8448 101.896 15.424C101.896 14.0288 101.522 12.9357 100.78 12.1447C100.035 11.3536 99.0828 10.9594 97.918 10.9594C96.7532 10.9594 95.8009 11.3562 95.056 12.1447C94.3111 12.9357 93.9399 14.0288 93.9399 15.424C93.9399 16.8423 94.3111 17.9533 95.056 18.7572C95.8009 19.561 96.7532 19.9604 97.918 19.9604C99.0802 19.9604 100.035 19.5584 100.78 18.7572Z"
    fill="#242424" />
</svg>