<?xml version="1.0" standalone="no"?>
<!DOCTYPE svg PUBLIC "-//W3C//DTD SVG 20010904//EN"
 "http://www.w3.org/TR/2001/REC-SVG-20010904/DTD/svg10.dtd">
<svg version="1.0" xmlns="http://www.w3.org/2000/svg"
 width="1071.000000pt" height="1071.000000pt" viewBox="0 0 1071.000000 1071.000000"
 preserveAspectRatio="xMidYMid meet">
<metadata>
Created by potrace 1.11, written by Peter Selinger 2001-2013
</metadata>
<g transform="translate(0.000000,1071.000000) scale(0.100000,-0.100000)"
fill="#000000" stroke="none">
<path d="M4780 10693 c-41 -8 -84 -15 -95 -17 -11 -2 -27 -6 -35 -9 -8 -3 -53
-17 -100 -32 -97 -31 -230 -92 -308 -141 -29 -19 -55 -34 -58 -34 -10 0 -94
-61 -189 -136 -93 -74 -284 -265 -345 -344 -19 -25 -37 -47 -41 -50 -27 -22
-249 -352 -249 -370 0 -5 -4 -10 -8 -10 -5 0 -14 -16 -22 -35 -8 -19 -17 -35
-21 -35 -4 0 -10 -12 -14 -27 -3 -15 -10 -30 -14 -33 -4 -3 -31 -54 -61 -115
-29 -60 -56 -112 -59 -115 -3 -3 -7 -12 -9 -20 -2 -8 -13 -35 -24 -60 -12 -25
-23 -52 -24 -60 -2 -8 -8 -16 -14 -18 -5 -2 -8 -7 -5 -12 7 -11 -16 -61 -25
-55 -4 3 -8 -1 -7 -8 1 -32 -4 -48 -13 -42 -6 4 -9 3 -8 -2 4 -15 -14 -88 -23
-93 -5 -3 -10 -15 -12 -25 -4 -19 -6 -26 -23 -70 -4 -11 -6 -23 -6 -27 1 -5
-3 -8 -9 -8 -5 0 -8 -4 -5 -9 4 -5 1 -22 -5 -38 -13 -31 -12 -28 -33 -102 -8
-30 -19 -57 -23 -60 -4 -3 -9 -13 -10 -21 -4 -36 -29 -124 -41 -144 -3 -6 -7
-19 -8 -30 -2 -22 -11 -61 -14 -61 -1 0 -4 -13 -6 -30 -3 -16 -9 -32 -12 -35
-4 -3 -8 -14 -7 -25 0 -14 -11 -24 -35 -32 -19 -7 -41 -11 -48 -8 -7 3 -10 0
-7 -5 5 -9 -16 -14 -52 -13 -7 1 -13 -4 -13 -10 0 -6 -3 -7 -7 -4 -3 4 -12 2
-20 -4 -7 -6 -13 -8 -13 -4 0 4 -6 2 -13 -4 -8 -6 -22 -12 -33 -14 -20 -3
-232 -69 -299 -92 -22 -8 -53 -16 -68 -19 -16 -3 -35 -10 -43 -17 -8 -6 -14
-9 -14 -5 0 4 -13 0 -29 -8 -22 -12 -31 -12 -41 -3 -10 9 -11 9 -6 0 4 -8 -3
-15 -21 -19 -47 -11 -243 -74 -328 -106 -109 -41 -161 -75 -180 -118 -18 -41
-50 -166 -50 -195 1 -11 -4 -23 -10 -27 -6 -5 -5 -8 3 -8 7 0 11 -4 8 -9 -3
-4 -8 -28 -11 -52 -2 -24 -7 -60 -10 -79 -2 -19 -7 -53 -10 -75 -7 -60 -14
-116 -20 -155 -2 -19 -8 -57 -11 -85 -4 -27 -7 -58 -6 -67 0 -10 -2 -18 -6
-18 -4 0 -8 -21 -9 -48 -1 -26 -4 -65 -7 -87 -3 -22 -7 -58 -10 -80 -3 -22 -8
-62 -11 -90 -4 -27 -8 -62 -8 -77 -1 -16 -4 -28 -7 -28 -3 0 -5 -15 -6 -32 -2
-66 -15 -182 -22 -192 -6 -10 -10 -54 -11 -118 0 -16 -4 -28 -8 -28 -5 0 -9
-28 -11 -63 -2 -56 -8 -102 -12 -102 -1 0 -4 -18 -5 -40 -2 -22 -6 -56 -9 -75
-2 -19 -7 -69 -11 -110 -4 -41 -11 -82 -15 -90 -4 -8 -6 -24 -4 -34 1 -11 0
-24 -3 -29 -3 -4 -6 -32 -8 -60 -2 -29 -6 -68 -9 -87 -9 -57 -19 -133 -20
-157 0 -13 -3 -23 -6 -23 -3 0 -6 -17 -7 -38 -2 -38 -9 -106 -19 -177 -3 -22
-7 -55 -7 -72 -1 -18 -4 -33 -7 -33 -3 0 -6 -19 -7 -43 -4 -81 -15 -152 -24
-163 -5 -6 -4 -15 2 -21 7 -7 5 -15 -6 -27 -10 -10 -12 -16 -5 -16 8 0 10 -8
6 -22 -4 -13 -9 -43 -11 -68 -2 -25 -6 -54 -8 -65 -3 -11 -8 -56 -12 -100 -4
-44 -9 -83 -11 -86 -2 -4 -6 -35 -10 -70 -3 -35 -10 -91 -15 -124 -5 -33 -11
-80 -14 -105 -3 -25 -7 -61 -10 -80 -2 -19 -14 -109 -25 -200 -11 -91 -23
-172 -25 -180 -2 -8 -6 -44 -10 -80 -3 -36 -7 -76 -10 -90 -2 -14 -6 -43 -9
-65 -3 -22 -7 -56 -10 -75 -3 -19 -8 -57 -11 -85 -3 -27 -8 -63 -11 -80 -3
-16 -7 -50 -9 -75 -2 -25 -7 -63 -10 -85 -7 -43 -12 -85 -20 -150 -3 -22 -7
-58 -10 -80 -2 -22 -7 -60 -10 -85 -3 -25 -7 -58 -10 -75 -3 -16 -7 -50 -10
-74 -9 -80 -15 -136 -20 -166 -2 -16 -7 -50 -10 -75 -2 -25 -16 -128 -29 -230
-26 -194 -46 -345 -51 -395 -2 -16 -6 -48 -9 -70 -19 -139 -23 -167 -32 -245
-3 -30 -10 -65 -15 -77 -5 -13 -7 -23 -6 -24 4 -1 31 -8 57 -13 14 -3 45 -9
70 -12 25 -3 54 -8 65 -11 11 -4 27 -7 35 -9 8 -1 31 -4 50 -8 80 -15 357 -66
380 -70 14 -3 106 -21 205 -40 99 -19 196 -37 216 -40 20 -3 42 -8 50 -10 8
-3 30 -7 49 -10 19 -3 46 -8 60 -11 37 -8 70 -14 115 -20 22 -4 58 -11 80 -17
22 -6 51 -11 65 -12 14 -1 50 -7 80 -14 30 -6 93 -18 140 -26 84 -16 518 -98
615 -117 55 -10 68 -13 135 -25 25 -4 47 -8 50 -9 34 -7 90 -18 110 -21 14 -3
61 -12 105 -20 44 -8 91 -17 105 -20 14 -2 34 -6 46 -9 12 -3 39 -7 60 -10 21
-4 46 -8 54 -10 8 -3 33 -7 55 -10 22 -4 47 -8 55 -10 8 -2 31 -7 50 -10 39
-7 600 -112 640 -121 14 -2 50 -9 80 -14 65 -12 94 -17 135 -26 17 -4 39 -8
50 -10 11 -2 31 -6 45 -9 27 -6 62 -12 113 -20 17 -2 52 -9 77 -15 25 -5 59
-12 75 -14 17 -2 30 -5 30 -6 0 -2 27 -6 80 -14 17 -3 44 -7 60 -10 17 -4 54
-11 84 -17 30 -6 64 -12 75 -14 16 -2 516 -97 636 -120 14 -3 41 -8 60 -11 19
-3 42 -7 50 -9 8 -2 29 -7 45 -10 17 -2 41 -7 55 -10 14 -3 54 -10 89 -16 36
-5 67 -12 71 -14 3 -2 26 -7 51 -10 57 -8 83 -13 89 -15 3 -1 10 -3 15 -5 6
-1 12 -3 15 -4 3 -2 25 -5 50 -7 25 -3 52 -7 60 -11 8 -3 24 -7 35 -8 11 -1
40 -6 66 -10 33 -5 76 0 165 19 66 15 129 29 139 31 11 2 20 4 20 5 0 1 9 3
20 5 39 5 90 16 130 27 22 5 51 12 65 15 33 5 422 90 480 104 25 6 55 13 66
15 12 2 66 13 120 25 102 22 220 46 264 55 14 3 45 10 70 15 25 6 55 13 68 15
35 7 376 82 472 104 64 14 418 90 533 114 7 2 23 6 37 9 14 4 36 9 50 11 31 6
66 14 105 23 41 10 23 5 245 54 80 17 150 32 155 33 6 1 36 8 67 15 52 11 57
15 56 37 -2 16 -7 23 -16 19 -7 -2 -10 -1 -7 5 3 5 -8 103 -25 217 -17 114
-33 217 -34 228 -10 71 -18 123 -22 145 -2 14 -11 70 -19 125 -8 55 -17 116
-20 135 -2 19 -7 51 -9 70 -3 19 -8 49 -11 65 -4 17 -8 50 -10 75 -2 25 -4 45
-5 45 -2 0 -7 26 -15 85 -4 30 -9 66 -11 80 -5 33 -10 73 -18 135 -4 28 -10
61 -13 75 -3 14 -7 36 -8 50 -2 14 -5 41 -8 60 -3 19 -9 58 -12 85 -4 28 -8
57 -10 65 -2 8 -7 38 -10 65 -6 50 -37 255 -55 370 -5 33 -12 78 -15 100 -3
22 -7 47 -10 55 -2 8 -6 40 -10 70 -5 52 -7 68 -20 138 -3 15 -7 45 -10 67
-12 95 -14 111 -19 135 -4 23 -10 64 -22 150 -3 19 -7 46 -9 60 -3 14 -7 49
-11 78 -3 29 -7 63 -10 75 -8 41 -16 92 -19 122 -2 17 -8 64 -15 105 -16 102
-17 109 -23 155 -3 22 -11 72 -17 110 -6 39 -13 86 -15 105 -9 61 -46 314 -51
340 -2 14 -18 120 -34 235 -17 116 -35 235 -40 265 -5 30 -12 79 -15 109 -4
30 -9 63 -11 75 -2 12 -6 39 -9 61 -11 88 -16 121 -21 148 -7 32 -9 50 -18
122 -4 28 -9 61 -11 75 -3 14 -7 43 -10 65 -3 22 -10 67 -15 100 -10 65 -48
318 -56 375 -2 19 -11 76 -19 125 -12 74 -40 263 -71 475 -3 19 -7 51 -9 70
-2 19 -6 46 -9 60 -3 14 -8 44 -11 67 -3 23 -7 57 -10 75 -3 18 -7 49 -9 68
-6 44 -14 99 -26 170 -5 30 -12 78 -16 105 -3 28 -8 57 -9 66 -2 9 -6 40 -10
70 -3 30 -9 63 -12 73 -3 11 -7 38 -9 60 -2 23 -10 82 -18 131 -8 50 -17 112
-21 139 -3 27 -8 52 -9 55 -2 3 -7 31 -10 62 -4 31 -8 65 -10 75 -2 11 -7 41
-10 67 -4 27 -9 59 -12 70 -2 12 -7 42 -10 67 -8 60 -29 99 -60 110 -26 10
-75 16 -204 24 -41 3 -113 8 -160 11 -47 4 -105 8 -130 10 -70 4 -262 18 -295
21 -16 1 -46 3 -67 3 -34 1 -57 22 -357 319 -272 268 -329 320 -374 339 -73
30 -126 24 -328 -37 -94 -28 -174 -49 -177 -46 -3 3 -2 6 3 6 4 0 3 6 -3 13
-13 15 -63 147 -56 147 3 0 -2 7 -10 16 -9 8 -16 23 -16 33 0 10 -3 21 -7 25
-5 4 -8 11 -9 14 0 7 -91 183 -109 211 -200 317 -424 496 -702 562 -27 6 -95
13 -151 14 l-104 3 -69 71 c-80 80 -195 161 -266 186 -26 9 -56 21 -65 26 -10
5 -35 12 -55 15 -21 3 -47 8 -58 11 -40 12 -223 9 -295 -4z m304 -378 c28 -8
61 -21 73 -28 22 -12 21 -13 -25 -37 -72 -38 -172 -100 -224 -139 -87 -66
-259 -239 -313 -316 -11 -15 -28 -36 -37 -47 -10 -10 -15 -18 -11 -18 3 0 -2
-10 -13 -22 -25 -28 -75 -104 -90 -138 -4 -8 -14 -23 -22 -32 -8 -10 -11 -18
-6 -18 5 0 3 -4 -5 -9 -8 -5 -16 -16 -17 -25 -1 -8 -11 -28 -22 -43 -11 -15
-21 -32 -22 -38 -3 -14 -38 -95 -55 -126 -8 -14 -12 -29 -8 -33 3 -3 1 -6 -5
-6 -7 0 -12 -9 -12 -19 0 -11 -5 -23 -10 -26 -6 -4 -8 -11 -5 -16 4 -5 2 -9
-3 -9 -5 0 -9 -7 -9 -15 0 -8 -7 -31 -15 -52 -23 -54 -30 -75 -35 -98 -2 -10
-7 -22 -11 -25 -4 -3 -8 -16 -10 -30 -1 -13 -6 -27 -11 -30 -4 -3 -8 -12 -9
-20 -1 -35 -13 -66 -29 -79 -17 -13 -17 -13 0 -7 10 3 16 2 14 -2 -10 -18 -20
-49 -22 -64 -2 -10 -3 -19 -5 -20 -4 -6 -12 -44 -14 -65 -1 -26 -6 -28 -26
-10 -12 10 -12 9 0 -7 18 -23 22 -49 7 -43 -8 3 -11 -9 -10 -37 1 -42 -12 -70
-28 -60 -5 3 -9 0 -9 -5 0 -6 -11 -11 -25 -11 -14 0 -25 -6 -26 -12 0 -10 -2
-10 -6 0 -6 14 -29 16 -38 2 -4 -6 1 -7 12 -4 15 5 15 4 3 -4 -10 -8 -19 -7
-29 1 -11 9 -13 9 -8 0 7 -12 -30 -30 -40 -19 -3 3 -18 -3 -32 -14 -26 -18
-28 -18 -38 -1 -9 14 -9 21 0 30 6 6 7 11 1 11 -15 0 -34 -38 -28 -55 5 -11 2
-14 -10 -9 -11 4 -15 12 -10 23 4 9 6 24 6 33 0 10 4 17 11 15 6 -1 13 6 15
16 2 9 -1 17 -7 17 -6 0 -8 -7 -4 -15 3 -10 0 -15 -8 -13 -7 2 -14 -6 -16 -17
-2 -11 -4 -30 -6 -42 -4 -30 -10 -34 -46 -35 -17 -1 -28 -4 -26 -8 2 -4 -1 -7
-8 -7 -7 0 -19 -2 -27 -4 -8 -2 -14 2 -12 9 6 29 -30 23 -62 -11 -25 -26 -54
-43 -112 -61 -92 -30 -90 -30 -74 -11 16 19 5 34 -22 27 -16 -4 -19 -2 -13 8
5 9 4 11 -4 6 -17 -11 -2 -29 20 -23 11 3 19 2 19 -2 0 -14 -39 -43 -49 -37
-5 3 -11 1 -13 -4 -2 -6 -10 -12 -18 -13 -8 -2 -20 -6 -27 -10 -6 -4 -18 -4
-26 -1 -14 5 -14 10 -1 40 8 19 12 34 10 34 -3 0 2 16 10 35 8 19 15 38 17 42
1 5 4 7 7 6 3 0 6 17 7 39 0 22 7 44 13 48 7 4 14 24 15 45 1 20 8 40 14 45 7
4 12 11 12 16 -3 27 134 380 157 407 8 9 12 17 7 17 -4 0 -2 6 4 13 6 8 8 17
4 20 -3 4 -1 7 5 7 7 0 12 6 12 13 0 8 19 50 43 94 23 44 43 86 45 93 1 7 9
19 17 27 8 8 15 21 15 29 0 8 4 14 9 14 5 0 16 17 25 38 25 56 152 248 181
272 8 7 15 17 15 22 0 5 9 19 21 31 12 12 33 38 47 57 54 73 251 258 348 328
56 40 104 72 107 72 3 0 30 14 58 31 104 61 362 151 387 135 5 -3 14 -1 21 4
20 12 146 3 205 -15z m841 -342 c22 -10 46 -23 53 -30 7 -7 17 -13 21 -13 13
0 125 -113 164 -165 20 -27 40 -55 44 -60 31 -41 144 -271 146 -297 1 -10 5
-18 9 -18 4 0 8 -8 8 -18 0 -10 3 -22 7 -25 13 -13 41 -107 34 -112 -5 -2 -89
-29 -187 -60 -98 -31 -207 -65 -241 -76 -34 -10 -64 -19 -66 -19 -2 0 -4 24
-4 53 -1 86 -17 308 -29 397 -2 19 -6 53 -8 75 -3 22 -5 40 -7 40 -1 0 -3 9
-4 20 -2 11 -6 34 -9 50 -4 17 -9 39 -11 50 -11 59 -39 170 -60 235 -6 17 -3
18 47 5 29 -8 71 -22 93 -32z m-508 -39 c-3 -3 1 -25 10 -47 8 -23 19 -60 24
-82 12 -50 17 -70 19 -70 1 0 3 -9 4 -20 2 -11 6 -33 10 -50 10 -48 14 -69 21
-126 9 -77 15 -111 21 -121 3 -4 0 -8 -6 -8 -7 0 -8 -6 -1 -17 11 -22 12 -42
14 -263 2 -174 2 -175 -20 -174 -12 0 -20 -2 -18 -6 6 -9 -124 -42 -137 -34
-6 4 -8 3 -5 -3 4 -6 -12 -16 -36 -23 -23 -7 -54 -17 -69 -22 -15 -6 -32 -7
-39 -2 -8 4 -10 3 -5 -4 6 -11 -19 -18 -46 -13 -5 0 -8 -3 -8 -8 0 -6 -9 -8
-20 -6 -11 2 -18 0 -15 -6 5 -8 -28 -14 -38 -6 -2 1 -11 -4 -21 -12 -9 -8 -19
-11 -23 -8 -3 4 -12 2 -20 -4 -7 -6 -13 -8 -13 -5 0 4 -9 2 -19 -4 -14 -7 -21
-6 -24 3 -3 7 -6 4 -6 -7 -1 -11 -6 -16 -15 -13 -7 3 -18 1 -22 -3 -5 -5 -21
-11 -34 -14 -14 -2 -27 -5 -30 -6 -3 -2 -8 -2 -12 -1 -5 0 -8 -4 -8 -9 0 -6
-5 -10 -11 -10 -5 0 -7 6 -3 13 4 6 -2 4 -13 -5 -23 -21 -37 -24 -27 -5 4 6
-2 4 -13 -6 -12 -11 -27 -15 -38 -11 -14 6 -16 4 -10 -6 5 -8 4 -11 -3 -6 -6
3 -13 2 -16 -3 -3 -4 -20 -12 -38 -16 -18 -4 -40 -10 -48 -12 -8 -3 -23 -5
-32 -6 -10 -1 -18 -5 -18 -10 0 -5 -10 -5 -21 -2 -15 5 -19 4 -15 -4 4 -6 1
-11 -8 -11 -24 0 -28 18 -5 25 15 5 18 10 10 15 -18 10 11 106 30 102 11 -3
11 -1 2 9 -8 8 -9 18 -2 31 5 10 7 18 4 18 -4 0 -3 6 2 13 4 6 8 14 8 17 1 4
15 45 43 120 3 8 6 17 7 20 1 3 9 22 18 44 9 21 17 41 17 44 0 10 45 97 53
100 4 2 7 10 7 18 0 15 42 95 87 166 12 21 23 42 23 47 0 5 7 11 15 15 8 3 14
9 13 13 -2 5 9 22 25 38 15 16 27 33 27 38 0 21 190 213 271 273 62 47 217
134 238 134 8 0 12 -3 8 -6z m-1617 -1505 c0 -6 -4 -7 -10 -4 -5 3 -10 11 -10
16 0 6 5 7 10 4 6 -3 10 -11 10 -16z m-183 -50 c1 -12 -1 -19 -4 -16 -3 4 -18
0 -34 -9 -17 -8 -29 -10 -29 -4 0 5 6 10 14 10 8 0 18 9 21 20 8 26 30 26 32
-1z"/>
<path d="M3796 9037 c3 -10 9 -15 12 -12 3 3 0 11 -7 18 -10 9 -11 8 -5 -6z"/>
<path d="M4013 8895 c0 -8 4 -12 9 -9 5 3 6 10 3 15 -9 13 -12 11 -12 -6z"/>
<path d="M3835 8890 c-3 -5 -1 -10 4 -10 6 0 11 5 11 10 0 6 -2 10 -4 10 -3 0
-8 -4 -11 -10z"/>
<path d="M3976 8892 c-3 -5 1 -9 9 -9 8 0 12 4 9 9 -3 4 -7 8 -9 8 -2 0 -6 -4
-9 -8z"/>
<path d="M4096 8891 c-3 -5 2 -15 12 -22 15 -12 16 -12 5 2 -7 9 -10 19 -6 22
3 4 4 7 0 7 -3 0 -8 -4 -11 -9z"/>
<path d="M3886 8848 c3 -5 10 -6 15 -3 13 9 11 12 -6 12 -8 0 -12 -4 -9 -9z"/>
<path d="M3835 8841 c-3 -5 -2 -12 3 -15 5 -3 9 1 9 9 0 17 -3 19 -12 6z"/>
<path d="M3555 8830 c3 -5 8 -10 11 -10 2 0 4 5 4 10 0 6 -5 10 -11 10 -5 0
-7 -4 -4 -10z"/>
<path d="M3697 8825 c-4 -8 -3 -16 1 -19 4 -3 9 4 9 15 2 23 -3 25 -10 4z"/>
<path d="M3774 8826 c1 -8 5 -18 8 -22 4 -3 5 1 4 10 -1 8 -5 18 -8 22 -4 3
-5 -1 -4 -10z"/>
<path d="M3936 8812 c-3 -4 4 -9 15 -9 23 -2 25 3 4 10 -8 4 -16 3 -19 -1z"/>
<path d="M3830 8790 c0 -5 5 -10 11 -10 5 0 7 5 4 10 -3 6 -8 10 -11 10 -2 0
-4 -4 -4 -10z"/>
<path d="M3910 8766 c0 -2 8 -10 18 -17 15 -13 16 -12 3 4 -13 16 -21 21 -21
13z"/>
<path d="M3865 8750 c-3 -6 1 -7 9 -4 18 7 21 14 7 14 -6 0 -13 -4 -16 -10z"/>
<path d="M3510 8730 c0 -5 5 -10 11 -10 5 0 7 5 4 10 -3 6 -8 10 -11 10 -2 0
-4 -4 -4 -10z"/>
<path d="M3575 8730 c-3 -5 -1 -10 4 -10 6 0 11 5 11 10 0 6 -2 10 -4 10 -3 0
-8 -4 -11 -10z"/>
<path d="M4066 8730 c6 -8 10 -23 8 -33 -1 -11 0 -16 4 -13 12 13 10 36 -6 48
-15 11 -15 11 -6 -2z"/>
<path d="M4035 8720 c-4 -6 -10 -8 -14 -6 -4 3 -8 -2 -8 -10 0 -10 4 -11 10
-5 7 7 15 5 24 -7 13 -15 13 -15 4 4 -6 12 -7 24 -4 28 3 3 4 6 0 6 -3 0 -9
-5 -12 -10z"/>
<path d="M3939 8703 c-13 -16 -12 -17 4 -4 9 7 17 15 17 17 0 8 -8 3 -21 -13z"/>
<path d="M3872 8681 c7 -9 13 -18 15 -20 1 -2 1 5 0 16 0 11 -7 20 -14 20 -10
0 -10 -4 -1 -16z"/>
<path d="M3436 8677 c3 -10 9 -15 12 -12 3 3 0 11 -7 18 -10 9 -11 8 -5 -6z"/>
<path d="M4013 8664 c0 -9 4 -11 12 -4 7 5 14 9 16 7 2 -1 3 0 1 2 -7 11 -29
7 -29 -5z"/>
<path d="M3795 8659 c-4 -6 -5 -12 -2 -15 2 -3 7 2 10 11 7 17 1 20 -8 4z"/>
<path d="M3948 8653 c7 -3 16 -2 19 1 4 3 -2 6 -13 5 -11 0 -14 -3 -6 -6z"/>
<path d="M3806 8635 c-11 -8 -15 -15 -9 -15 6 0 16 7 23 15 16 19 11 19 -14 0z"/>
<path d="M3852 8641 c-11 -7 -11 -9 0 -14 9 -3 15 1 15 9 0 8 -1 14 -1 14 -1
0 -7 -4 -14 -9z"/>
<path d="M3994 8629 c0 -10 4 -19 8 -19 4 0 8 6 8 14 0 8 -4 17 -8 20 -4 2 -8
-4 -8 -15z"/>
<path d="M3424 8628 c-4 -7 -3 -8 5 -4 6 4 20 2 29 -6 15 -12 16 -11 3 5 -16
20 -27 22 -37 5z"/>
<path d="M3547 8629 c7 -7 15 -10 18 -7 3 3 -2 9 -12 12 -14 6 -15 5 -6 -5z"/>
<path d="M3904 8632 c4 -3 14 -7 22 -8 9 -1 13 0 10 4 -4 3 -14 7 -22 8 -9 1
-13 0 -10 -4z"/>
<path d="M3590 8626 c0 -2 8 -10 18 -17 15 -13 16 -12 3 4 -13 16 -21 21 -21
13z"/>
<path d="M3830 8616 c0 -2 7 -7 16 -10 8 -3 12 -2 9 4 -6 10 -25 14 -25 6z"/>
<path d="M4036 8603 c-6 -14 -5 -15 5 -6 7 7 10 15 7 18 -3 3 -9 -2 -12 -12z"/>
<path d="M3490 8606 c0 -2 8 -10 18 -17 15 -13 16 -12 3 4 -13 16 -21 21 -21
13z"/>
<path d="M3649 8593 c-8 -9 -9 -14 -2 -10 6 4 13 1 16 -5 3 -7 4 -3 4 10 -1
26 -1 26 -18 5z"/>
<path d="M3922 8590 c-15 -25 -15 -30 0 -30 6 0 8 3 5 7 -4 3 -2 12 5 20 6 7
9 15 7 18 -3 2 -10 -5 -17 -15z"/>
<path d="M3450 8591 c0 -6 4 -13 10 -16 6 -3 7 1 4 9 -7 18 -14 21 -14 7z"/>
<path d="M3730 8591 c0 -4 13 -7 30 -7 16 0 28 2 25 4 -8 9 -55 11 -55 3z"/>
<path d="M3814 8588 c-5 -7 -2 -8 6 -3 10 6 12 4 6 -10 -5 -15 -4 -16 9 -5 19
15 19 16 0 23 -8 4 -17 1 -21 -5z"/>
<path d="M3876 8588 c3 -4 9 -8 15 -8 5 0 9 4 9 8 0 5 -7 9 -15 9 -8 0 -12 -4
-9 -9z"/>
<path d="M3955 8590 c3 -5 8 -10 11 -10 2 0 4 5 4 10 0 6 -5 10 -11 10 -5 0
-7 -4 -4 -10z"/>
<path d="M3393 8565 c0 -8 4 -12 9 -9 5 3 6 10 3 15 -9 13 -12 11 -12 -6z"/>
<path d="M3431 8563 c7 -12 15 -20 18 -17 3 2 -3 12 -13 22 -17 16 -18 16 -5
-5z"/>
<path d="M3715 8570 c6 -10 4 -12 -11 -6 -15 6 -17 5 -6 -5 9 -9 15 -10 23 -2
8 8 7 13 -2 18 -8 6 -10 4 -4 -5z"/>
<path d="M3855 8569 c-6 -8 -4 -10 5 -4 10 6 12 4 7 -9 -4 -10 -7 -19 -7 -22
0 -2 -7 -1 -15 2 -8 4 -15 4 -15 1 0 -17 31 -13 41 4 12 24 -3 50 -16 28z"/>
<path d="M4013 8568 c-3 -6 -1 -8 5 -4 5 3 13 0 15 -6 4 -10 6 -10 6 0 1 8 6
10 14 6 6 -4 8 -3 4 1 -12 13 -36 15 -44 3z"/>
<path d="M3990 8561 c0 -10 19 -25 25 -20 1 2 -3 10 -11 17 -8 7 -14 8 -14 3z"/>
<path d="M3466 8548 c5 -7 60 -5 68 3 3 3 -12 5 -33 4 -22 0 -37 -3 -35 -7z"/>
<path d="M3637 8545 c-4 -8 -3 -16 1 -19 4 -3 9 4 9 15 2 23 -3 25 -10 4z"/>
<path d="M3661 8544 c0 -11 3 -14 6 -6 3 7 2 16 -1 19 -3 4 -6 -2 -5 -13z"/>
<path d="M3735 8550 c-3 -5 -1 -10 4 -10 6 0 11 5 11 10 0 6 -2 10 -4 10 -3 0
-8 -4 -11 -10z"/>
<path d="M3792 8548 c2 -6 10 -13 16 -14 7 -1 8 0 2 3 -5 2 -8 9 -4 14 3 5 0
9 -6 9 -7 0 -10 -5 -8 -12z"/>
<path d="M3940 8546 c0 -16 -31 -16 -43 -1 -5 6 -7 4 -5 -4 5 -19 48 -22 55
-4 3 7 10 10 16 6 6 -3 7 -1 3 5 -10 16 -26 15 -26 -2z"/>
<path d="M3549 8525 c5 -5 7 -18 6 -27 -2 -10 1 -18 6 -18 5 0 7 11 5 24 -2
14 1 27 7 29 7 3 2 4 -10 4 -14 -1 -19 -5 -14 -12z"/>
<path d="M3755 8530 c-3 -6 1 -7 9 -4 18 7 21 14 7 14 -6 0 -13 -4 -16 -10z"/>
<path d="M3976 8533 c-9 -10 -7 -33 4 -33 5 0 7 7 4 15 -8 19 0 19 20 -1 9 -8
16 -11 16 -5 0 13 -35 32 -44 24z"/>
<path d="M4030 8530 c0 -5 5 -10 10 -10 6 0 10 5 10 10 0 6 -4 10 -10 10 -5 0
-10 -4 -10 -10z"/>
<path d="M3495 8519 c-4 -6 -5 -12 -2 -15 2 -3 7 2 10 11 7 17 1 20 -8 4z"/>
<path d="M3675 8520 c-3 -5 -2 -18 4 -27 7 -14 9 -12 8 10 -2 30 -3 31 -12 17z"/>
<path d="M3373 8503 c0 -9 4 -10 14 -2 7 6 13 12 13 14 0 1 -6 2 -13 2 -8 0
-14 -6 -14 -14z"/>
<path d="M3631 8503 c7 -12 15 -20 18 -17 3 2 -3 12 -13 22 -17 16 -18 16 -5
-5z"/>
<path d="M3700 8510 c0 -5 5 -10 11 -10 5 0 7 5 4 10 -3 6 -8 10 -11 10 -2 0
-4 -4 -4 -10z"/>
<path d="M3810 8507 c0 -8 3 -16 6 -20 8 -8 34 3 34 15 0 6 -8 4 -17 -3 -15
-12 -16 -12 -10 4 3 9 2 17 -3 17 -6 0 -10 -6 -10 -13z"/>
<path d="M3866 8512 c-2 -4 4 -8 14 -8 10 0 16 4 14 8 -3 4 -9 8 -14 8 -5 0
-11 -4 -14 -8z"/>
<path d="M3910 8500 c0 -5 5 -10 10 -10 6 0 10 5 10 10 0 6 -4 10 -10 10 -5 0
-10 -4 -10 -10z"/>
<path d="M3401 8486 c-9 -11 -9 -16 1 -22 7 -4 10 -4 6 1 -4 4 -3 14 3 22 6 7
9 13 6 13 -2 0 -10 -6 -16 -14z"/>
<path d="M3600 8478 c-10 -21 -10 -21 3 -6 8 10 18 14 22 10 5 -4 5 -1 1 6
-10 17 -14 15 -26 -10z"/>
<path d="M3335 8480 c-4 -6 -11 -7 -17 -4 -7 4 -8 2 -4 -5 6 -9 11 -9 22 0 14
11 18 19 10 19 -3 0 -8 -5 -11 -10z"/>
<path d="M3493 8475 c0 -7 6 -11 14 -8 7 3 13 6 13 8 0 2 -6 5 -13 8 -8 3 -14
-1 -14 -8z"/>
<path d="M3657 8471 c-3 -13 -1 -18 9 -14 7 2 10 11 7 19 -7 19 -10 18 -16 -5z"/>
<path d="M3720 8475 c0 -8 4 -15 10 -15 5 0 7 7 4 15 -4 8 -8 15 -10 15 -2 0
-4 -7 -4 -15z"/>
<path d="M3841 8471 c-21 -11 -30 -21 -22 -25 6 -4 11 -3 11 2 0 6 17 17 38
25 20 9 30 16 22 16 -8 0 -30 -8 -49 -18z"/>
<path d="M3370 8471 c0 -6 4 -13 10 -16 6 -3 7 1 4 9 -7 18 -14 21 -14 7z"/>
<path d="M3531 8464 c0 -11 3 -14 6 -6 3 7 2 16 -1 19 -3 4 -6 -2 -5 -13z"/>
<path d="M3347 8457 c-3 -8 1 -14 8 -14 7 0 11 6 8 14 -3 7 -6 13 -8 13 -2 0
-5 -6 -8 -13z"/>
<path d="M3577 8447 c3 -5 14 -6 25 -4 14 4 18 2 14 -9 -3 -8 -2 -13 3 -9 5 3
11 0 13 -7 3 -7 7 -5 11 6 4 9 3 15 -2 11 -5 -3 -11 0 -13 7 -2 6 -16 12 -30
12 -15 1 -24 -2 -21 -7z"/>
<path d="M3677 8446 c-17 -13 -17 -14 0 -20 10 -4 14 -4 10 0 -4 4 1 13 11 20
9 7 13 13 7 13 -5 0 -18 -6 -28 -13z"/>
<path d="M3422 8436 c10 -7 14 -17 10 -21 -4 -5 -1 -5 6 -1 19 11 14 23 -10
29 -21 5 -21 5 -6 -7z"/>
<path d="M3562 8434 c10 -10 20 -16 22 -13 3 3 -5 11 -17 18 -21 13 -21 12 -5
-5z"/>
<path d="M3390 8425 c0 -8 4 -15 10 -15 5 0 7 7 4 15 -4 8 -8 15 -10 15 -2 0
-4 -7 -4 -15z"/>
<path d="M3500 8418 c-11 -22 -11 -23 5 -3 15 19 17 19 26 2 6 -9 14 -15 20
-12 5 4 9 2 9 -4 0 -5 -5 -12 -10 -14 -6 -3 -5 -4 2 -3 15 3 18 26 4 25 -5 0
-13 6 -18 15 -12 22 -25 20 -38 -6z"/>
<path d="M3646 8404 c-5 -14 -4 -15 9 -4 17 14 19 20 6 20 -5 0 -12 -7 -15
-16z"/>
<path d="M3696 8411 c-4 -5 3 -7 14 -4 23 6 26 13 6 13 -8 0 -17 -4 -20 -9z"/>
<path d="M3472 8390 c0 -14 2 -19 5 -12 2 6 2 18 0 25 -3 6 -5 1 -5 -13z"/>
<path d="M3356 8391 c-3 -4 6 -7 19 -7 14 0 22 2 19 5 -8 8 -34 10 -38 2z"/>
<path d="M3410 8390 c0 -5 5 -10 10 -10 6 0 10 5 10 10 0 6 -4 10 -10 10 -5 0
-10 -4 -10 -10z"/>
<path d="M3516 8378 c6 -20 5 -21 -10 -9 -10 9 -16 10 -16 2 0 -6 5 -11 10
-11 6 0 13 0 18 0 4 0 8 9 8 20 1 11 -3 20 -8 20 -5 0 -6 -10 -2 -22z"/>
<path d="M3436 8375 c-9 -26 -7 -32 5 -12 6 10 9 21 6 23 -2 3 -7 -2 -11 -11z"/>
<path d="M3284 8354 c-18 -14 -18 -15 4 -4 12 6 22 13 22 15 0 8 -5 6 -26 -11z"/>
<path d="M3355 8360 c3 -5 8 -10 11 -10 2 0 4 5 4 10 0 6 -5 10 -11 10 -5 0
-7 -4 -4 -10z"/>
<path d="M3396 8355 c-3 -8 -1 -15 4 -15 6 0 10 7 10 15 0 8 -2 15 -4 15 -2 0
-6 -7 -10 -15z"/>
<path d="M3314 8345 c-4 -8 -11 -12 -17 -8 -6 3 -7 1 -3 -5 10 -16 14 -15 26
8 6 11 8 20 5 20 -3 0 -8 -7 -11 -15z"/>
<path d="M3450 8351 c0 -17 19 -22 37 -11 15 9 14 10 -6 4 -16 -4 -21 -3 -17
5 4 6 2 11 -3 11 -6 0 -11 -4 -11 -9z"/>
<path d="M3414 8329 c-3 -6 -3 -13 0 -16 3 -4 6 -1 6 5 0 6 7 9 15 6 8 -4 15
-4 15 -1 0 11 -30 16 -36 6z"/>
<path d="M3316 8312 c-3 -4 4 -9 15 -9 23 -2 25 3 4 10 -8 4 -16 3 -19 -1z"/>
<path d="M3274 8285 c-4 -8 -11 -12 -17 -8 -6 4 -7 1 -2 -7 6 -10 11 -10 20 3
14 19 30 23 19 5 -4 -7 -3 -8 5 -4 12 8 6 26 -10 26 -5 0 -12 -7 -15 -15z"/>
<path d="M4875 9079 c-4 -6 -5 -12 -2 -15 2 -3 7 2 10 11 7 17 1 20 -8 4z"/>
<path d="M4755 8981 c-3 -5 -2 -12 3 -15 5 -3 9 1 9 9 0 17 -3 19 -12 6z"/>
<path d="M5016 8888 c3 -5 10 -6 15 -3 13 9 11 12 -6 12 -8 0 -12 -4 -9 -9z"/>
<path d="M4850 8869 c0 -5 5 -7 10 -4 6 3 10 8 10 11 0 2 -4 4 -10 4 -5 0 -10
-5 -10 -11z"/>
<path d="M4906 8868 c3 -4 9 -8 15 -8 5 0 9 4 9 8 0 5 -7 9 -15 9 -8 0 -12 -4
-9 -9z"/>
<path d="M4730 8849 c0 -5 5 -7 10 -4 6 3 10 8 10 11 0 2 -4 4 -10 4 -5 0 -10
-5 -10 -11z"/>
<path d="M4770 8849 c0 -5 5 -7 10 -4 6 3 10 8 10 11 0 2 -4 4 -10 4 -5 0 -10
-5 -10 -11z"/>
<path d="M4970 8849 c0 -5 5 -7 10 -4 6 3 10 8 10 11 0 2 -4 4 -10 4 -5 0 -10
-5 -10 -11z"/>
<path d="M4910 8830 c0 -5 5 -10 11 -10 5 0 7 5 4 10 -3 6 -8 10 -11 10 -2 0
-4 -4 -4 -10z"/>
<path d="M4613 8785 c0 -8 4 -12 9 -9 5 3 6 10 3 15 -9 13 -12 11 -12 -6z"/>
<path d="M4719 8783 c-13 -16 -12 -17 4 -4 9 7 17 15 17 17 0 8 -8 3 -21 -13z"/>
<path d="M4750 8772 c0 -5 7 -9 15 -9 8 0 12 4 9 9 -3 4 -9 8 -15 8 -5 0 -9
-4 -9 -8z"/>
<path d="M4569 8754 c-11 -14 -24 -52 -14 -42 2 1 3 6 2 9 -1 4 7 16 17 28 11
12 17 21 14 21 -3 0 -12 -7 -19 -16z"/>
<path d="M4597 8742 c-15 -17 -15 -18 6 -19 12 0 16 1 9 4 -10 4 -10 8 -1 19
17 20 5 17 -14 -4z"/>
<path d="M4635 8750 c-3 -5 -1 -10 4 -10 6 0 11 5 11 10 0 6 -2 10 -4 10 -3 0
-8 -4 -11 -10z"/>
<path d="M4628 8693 c7 -3 16 -2 19 1 4 3 -2 6 -13 5 -11 0 -14 -3 -6 -6z"/>
<path d="M2636 8552 c-3 -5 1 -9 9 -9 8 0 12 4 9 9 -3 4 -7 8 -9 8 -2 0 -6 -4
-9 -8z"/>
<path d="M2716 8423 c-6 -14 -5 -15 5 -6 7 7 10 15 7 18 -3 3 -9 -2 -12 -12z"/>
<path d="M2820 8396 c0 -2 8 -10 18 -17 15 -13 16 -12 3 4 -13 16 -21 21 -21
13z"/>
<path d="M2775 8290 c-3 -5 -1 -10 4 -10 6 0 11 5 11 10 0 6 -2 10 -4 10 -3 0
-8 -4 -11 -10z"/>
<path d="M2650 8249 c0 -5 5 -7 10 -4 6 3 10 8 10 11 0 2 -4 4 -10 4 -5 0 -10
-5 -10 -11z"/>
<path d="M2469 8233 c-13 -16 -12 -17 4 -4 16 13 21 21 13 21 -2 0 -10 -8 -17
-17z"/>
<path d="M2267 8189 c7 -7 15 -10 18 -7 3 3 -2 9 -12 12 -14 6 -15 5 -6 -5z"/>
<path d="M2630 8190 c0 -5 5 -10 11 -10 5 0 7 5 4 10 -3 6 -8 10 -11 10 -2 0
-4 -4 -4 -10z"/>
<path d="M2495 8129 c-3 -4 2 -6 10 -5 21 3 28 13 10 13 -9 0 -18 -4 -20 -8z"/>
<path d="M2735 8119 c-4 -6 -5 -12 -2 -15 2 -3 7 2 10 11 7 17 1 20 -8 4z"/>
<path d="M2660 8116 c0 -2 8 -10 18 -17 15 -13 16 -12 3 4 -13 16 -21 21 -21
13z"/>
<path d="M2456 8052 c-3 -5 1 -9 9 -9 8 0 12 4 9 9 -3 4 -7 8 -9 8 -2 0 -6 -4
-9 -8z"/>
<path d="M2490 8050 c0 -5 5 -10 11 -10 5 0 7 5 4 10 -3 6 -8 10 -11 10 -2 0
-4 -4 -4 -10z"/>
<path d="M2413 8025 c0 -8 4 -12 9 -9 5 3 6 10 3 15 -9 13 -12 11 -12 -6z"/>
<path d="M1275 6490 c-3 -5 -1 -10 4 -10 6 0 11 5 11 10 0 6 -2 10 -4 10 -3 0
-8 -4 -11 -10z"/>
</g>
</svg>
